<svg width="16" height="16" viewBox="0 0 16 16" fill="none" xmlns="http://www.w3.org/2000/svg">
<path d="M5.52666 4.19334C5.24666 4.19334 5.02666 3.96668 5.02666 3.69334V1.83334C5.02666 1.56001 5.24666 1.33334 5.52666 1.33334C5.80666 1.33334 6.02666 1.56001 6.02666 1.83334V3.68668C6.02666 3.96668 5.80666 4.19334 5.52666 4.19334Z" fill="#8592AD"/>
<path d="M10.4733 4.19334C10.1933 4.19334 9.97334 3.96668 9.97334 3.69334V1.83334C9.97334 1.55334 10.2 1.33334 10.4733 1.33334C10.7533 1.33334 10.9733 1.56001 10.9733 1.83334V3.68668C10.9733 3.96668 10.7533 4.19334 10.4733 4.19334Z" fill="#8592AD"/>
<path d="M13.0467 3.00001C12.6067 2.67334 11.9733 2.98668 11.9733 3.54001V3.60668C11.9733 4.38668 11.4133 5.10668 10.6333 5.18668C9.73333 5.28001 8.97333 4.57334 8.97333 3.69334V3.00001C8.97333 2.63334 8.67333 2.33334 8.30666 2.33334H7.69333C7.32666 2.33334 7.02666 2.63334 7.02666 3.00001V3.69334C7.02666 4.22001 6.75333 4.68668 6.34 4.94668C6.28 4.98668 6.21333 5.02001 6.14666 5.05334C6.08666 5.08668 6.02 5.11334 5.94666 5.13334C5.86666 5.16001 5.78 5.18001 5.68666 5.18668C5.58 5.20001 5.47333 5.20001 5.36666 5.18668C5.27333 5.18001 5.18666 5.16001 5.10666 5.13334C5.04 5.11334 4.97333 5.08668 4.90666 5.05334C4.84 5.02001 4.77333 4.98668 4.71333 4.94668C4.29333 4.65334 4.02666 4.14668 4.02666 3.60668V3.54001C4.02666 3.02668 3.48 2.72001 3.04666 2.94001C3.04 2.94668 3.03333 2.94668 3.02666 2.95334C3 2.96668 2.98 2.98001 2.95333 3.00001C2.93333 3.02001 2.90666 3.03334 2.88666 3.05334C2.7 3.20001 2.53333 3.36668 2.39333 3.54668C2.32 3.62668 2.26 3.71334 2.20666 3.80001C2.2 3.80668 2.19333 3.81334 2.18666 3.82668C2.12666 3.91334 2.07333 4.01334 2.02666 4.10668C2.01333 4.12001 2.00666 4.12668 2.00666 4.14001C1.96666 4.22001 1.92666 4.30001 1.9 4.38668C1.88 4.42001 1.87333 4.44668 1.86 4.48001C1.82 4.58001 1.79333 4.68001 1.76666 4.78001C1.74 4.87334 1.72 4.97334 1.70666 5.07334C1.69333 5.14668 1.68666 5.22001 1.68 5.30001C1.67333 5.39334 1.66666 5.48668 1.66666 5.58001V11.42C1.66666 13.2133 3.12 14.6667 4.91333 14.6667H11.0867C12.88 14.6667 14.3333 13.2133 14.3333 11.42V5.58001C14.3333 4.52001 13.8267 3.59334 13.0467 3.00001ZM8 11.6133H4.90666C4.63333 11.6133 4.40666 11.3867 4.40666 11.1133C4.40666 10.8333 4.63333 10.6067 4.90666 10.6067H8C8.28 10.6067 8.5 10.8333 8.5 11.1133C8.5 11.3867 8.28 11.6133 8 11.6133ZM9.85333 9.14001H4.90666C4.63333 9.14001 4.40666 8.91334 4.40666 8.64001C4.40666 8.36001 4.63333 8.13334 4.90666 8.13334H9.85333C10.1333 8.13334 10.36 8.36001 10.36 8.64001C10.36 8.91334 10.1333 9.14001 9.85333 9.14001Z" fill="#8592AD"/>
</svg>
