<svg width="40" height="40" viewBox="0 0 40 40" fill="none" xmlns="http://www.w3.org/2000/svg">
<path d="M0 20C0 8.95431 8.95431 0 20 0C31.0457 0 40 8.95431 40 20C40 31.0457 31.0457 40 20 40C8.95431 40 0 31.0457 0 20Z" fill="#2467E3" fill-opacity="0.12"/>
<path d="M25.537 18.8796V22.5833C25.537 22.8241 25.5278 23.0556 25.5 23.2778C25.287 25.7778 23.8148 27.0185 21.1018 27.0185H20.7315C20.5 27.0185 20.2778 27.1296 20.1389 27.3148L19.0278 28.7963C18.537 29.4537 17.7407 29.4537 17.25 28.7963L16.1389 27.3148C16.0185 27.1574 15.75 27.0185 15.5463 27.0185H15.1759C12.2222 27.0185 10.7407 26.287 10.7407 22.5833V18.8796C10.7407 16.1667 11.9907 14.6945 14.4815 14.4815C14.7037 14.4537 14.9352 14.4444 15.1759 14.4444H21.1018C24.0555 14.4444 25.537 15.9259 25.537 18.8796Z" stroke="#2D3443" stroke-width="1.66667" stroke-miterlimit="10" stroke-linecap="round" stroke-linejoin="round"/>
<path d="M29.2407 15.1759V18.8796C29.2407 21.6019 27.9907 23.0648 25.5 23.2778C25.5278 23.0556 25.537 22.8241 25.537 22.5833V18.8796C25.537 15.9259 24.0555 14.4444 21.1018 14.4444H15.1759C14.9352 14.4444 14.7037 14.4537 14.4815 14.4815C14.6944 11.9907 16.1667 10.7407 18.8796 10.7407H24.8055C27.7592 10.7407 29.2407 12.2222 29.2407 15.1759Z" stroke="#2D3443" stroke-width="1.66667" stroke-miterlimit="10" stroke-linecap="round" stroke-linejoin="round"/>
<path d="M21.3847 21.1574H21.3931" stroke="#2D3443" stroke-width="1.66667" stroke-linecap="round" stroke-linejoin="round"/>
<path d="M18.144 21.1574H18.1523" stroke="#2D3443" stroke-width="1.66667" stroke-linecap="round" stroke-linejoin="round"/>
<path d="M14.9032 21.1574H14.9116" stroke="#2D3443" stroke-width="1.66667" stroke-linecap="round" stroke-linejoin="round"/>
</svg>
